<svg width="19" height="20" viewBox="0 0 19 20" fill="none" xmlns="http://www.w3.org/2000/svg">
<path d="M18.1953 10.1455C18.1953 9.042 17.9989 7.984 17.6388 7.0052C17.3926 9.88916 15.8551 11.3705 14.2485 10.6807C12.7437 10.0342 13.7578 7.51413 13.8327 6.31164C13.959 4.27322 13.8263 1.93994 10.1236 0C11.6621 2.94336 10.3018 4.77199 8.87503 4.8833C7.29204 5.00692 5.8423 3.52293 6.37746 1.11473C4.64462 2.39161 4.59432 4.5408 5.12894 5.93114C5.68657 7.38034 5.10646 8.58444 3.74663 8.71823C2.22679 8.86808 1.38231 7.09082 2.16096 4.25877C0.813438 5.84551 0 7.90051 0 10.1455C0 15.1701 4.07308 19.2432 9.09766 19.2432C14.1222 19.2432 18.1953 15.1701 18.1953 10.1455Z" fill="#F4900C"/>
</svg>
