<svg width="30" height="23" viewBox="0 0 30 23" fill="none" xmlns="http://www.w3.org/2000/svg">
<path d="M25.4353 1.94251C25.427 1.92625 25.4132 1.91351 25.3964 1.90657C23.4513 1.00858 21.3987 0.368233 19.2899 0.00157066C19.2707 -0.00201339 19.251 0.000572188 19.2333 0.00895968C19.2157 0.0173472 19.2012 0.0311095 19.1918 0.0482895C18.9123 0.558752 18.6586 1.08308 18.4316 1.61928C16.1584 1.27206 13.8462 1.27206 11.5731 1.61928C11.3446 1.08172 11.0868 0.55726 10.8009 0.0482895C10.7911 0.0314829 10.7765 0.0180375 10.759 0.00970447C10.7415 0.00137147 10.7219 -0.0014629 10.7027 0.00157066C8.59374 0.367463 6.541 1.00785 4.59618 1.90662C4.57953 1.91373 4.56549 1.92585 4.55598 1.94133C0.66673 7.78571 -0.398682 13.4864 0.123973 19.1165C0.125443 19.1303 0.129656 19.1436 0.136361 19.1558C0.143067 19.1679 0.152127 19.1785 0.163004 19.1871C2.42768 20.8744 4.96074 22.1623 7.6541 22.9959C7.67307 23.0016 7.69332 23.0014 7.71214 22.9951C7.73096 22.9889 7.74744 22.9771 7.75936 22.9612C8.33783 22.1692 8.8504 21.3305 9.29186 20.4537C9.29793 20.4416 9.30139 20.4284 9.30202 20.415C9.30266 20.4015 9.30044 20.388 9.29553 20.3755C9.29062 20.3629 9.28312 20.3516 9.27353 20.3421C9.26393 20.3327 9.25246 20.3254 9.23987 20.3208C8.43158 20.0096 7.64906 19.6344 6.89966 19.1989C6.88605 19.1908 6.87461 19.1795 6.86637 19.166C6.85813 19.1524 6.85333 19.137 6.85239 19.1212C6.85146 19.1053 6.85442 19.0895 6.86102 19.075C6.86762 19.0606 6.87765 19.048 6.89022 19.0384C7.04747 18.9198 7.20481 18.7965 7.35497 18.672C7.36831 18.6609 7.38445 18.6538 7.40158 18.6515C7.4187 18.6492 7.43614 18.6517 7.45191 18.6588C12.3616 20.9135 17.6769 20.9135 22.5285 18.6588C22.5443 18.6513 22.5619 18.6484 22.5793 18.6505C22.5967 18.6526 22.6131 18.6597 22.6267 18.6708C22.7769 18.7953 22.9342 18.9198 23.0926 19.0384C23.1052 19.0479 23.1153 19.0604 23.122 19.0748C23.1287 19.0892 23.1318 19.105 23.131 19.1208C23.1302 19.1367 23.1255 19.1521 23.1174 19.1657C23.1092 19.1793 23.0979 19.1907 23.0843 19.1989C22.3366 19.6381 21.5534 20.013 20.743 20.3196C20.7304 20.3244 20.719 20.3319 20.7094 20.3414C20.6999 20.351 20.6925 20.3625 20.6877 20.3752C20.6828 20.3878 20.6807 20.4013 20.6815 20.4149C20.6822 20.4284 20.6858 20.4416 20.692 20.4537C21.1408 21.3256 21.6526 22.1632 22.2233 22.9598C22.2349 22.9761 22.2513 22.9884 22.2702 22.9948C22.289 23.0013 22.3095 23.0016 22.3285 22.9957C25.0267 22.165 27.5642 20.8769 29.8317 19.1871C29.8428 19.179 29.852 19.1686 29.8587 19.1566C29.8654 19.1446 29.8695 19.1314 29.8708 19.1177C30.4965 12.6087 28.8232 6.95473 25.4353 1.94251ZM10.0251 15.6883C8.54691 15.6883 7.32895 14.3234 7.32895 12.647C7.32895 10.9707 8.52329 9.60564 10.0251 9.60564C11.5386 9.60564 12.7448 10.9826 12.7212 12.6469C12.7212 14.3234 11.5268 15.6883 10.0251 15.6883ZM19.9935 15.6883C18.5154 15.6883 17.2974 14.3234 17.2974 12.647C17.2974 10.9707 18.4917 9.60564 19.9935 9.60564C21.5071 9.60564 22.7132 10.9826 22.6896 12.6469C22.6896 14.3234 21.5071 15.6883 19.9935 15.6883Z" fill="white"/>
</svg>
