<svg width="24" height="29" viewBox="0 0 24 29" fill="none" xmlns="http://www.w3.org/2000/svg">
<g clip-path="url(#clip0)">
<path d="M19.606 0H4.13937C3.11387 0 2.13037 0.40738 1.40523 1.13252C0.680085 1.85766 0.272705 2.84116 0.272705 3.86667L0.272705 19.3333C0.272705 20.3588 0.680085 21.3423 1.40523 22.0675C2.13037 22.7926 3.11387 23.2 4.13937 23.2H19.606C20.6315 23.2 21.615 22.7926 22.3402 22.0675C23.0653 21.3423 23.4727 20.3588 23.4727 19.3333V3.86667C23.4727 2.84116 23.0653 1.85766 22.3402 1.13252C21.615 0.40738 20.6315 0 19.606 0V0ZM21.5394 19.3333C21.5394 19.8461 21.3357 20.3378 20.9731 20.7004C20.6105 21.063 20.1188 21.2667 19.606 21.2667H4.13937C3.62662 21.2667 3.13487 21.063 2.7723 20.7004C2.40973 20.3378 2.20604 19.8461 2.20604 19.3333V3.86667C2.20604 3.35391 2.40973 2.86216 2.7723 2.49959C3.13487 2.13702 3.62662 1.93333 4.13937 1.93333H19.606C20.1188 1.93333 20.6105 2.13702 20.9731 2.49959C21.3357 2.86216 21.5394 3.35391 21.5394 3.86667V19.3333Z" fill="white"/>
<path d="M11.8728 5.80005C10.7256 5.80005 9.60425 6.14021 8.65045 6.77753C7.69664 7.41484 6.95324 8.32067 6.51426 9.38049C6.07527 10.4403 5.96041 11.6065 6.1842 12.7316C6.408 13.8567 6.96039 14.8901 7.77154 15.7013C8.58268 16.5124 9.61614 17.0648 10.7412 17.2886C11.8663 17.5124 13.0325 17.3975 14.0923 16.9586C15.1521 16.5196 16.058 15.7762 16.6953 14.8224C17.3326 13.8686 17.6728 12.7472 17.6728 11.6C17.6728 10.0618 17.0617 8.58654 15.974 7.49883C14.8863 6.41112 13.411 5.80005 11.8728 5.80005ZM11.8728 15.4667C11.108 15.4667 10.3604 15.2399 9.72455 14.8151C9.08868 14.3902 8.59308 13.7863 8.30042 13.0798C8.00776 12.3732 7.93119 11.5958 8.08039 10.8457C8.22958 10.0956 8.59785 9.40667 9.13861 8.8659C9.67937 8.32514 10.3683 7.95688 11.1184 7.80768C11.8685 7.65848 12.6459 7.73506 13.3525 8.02771C14.059 8.32037 14.6629 8.81597 15.0878 9.45184C15.5126 10.0877 15.7394 10.8353 15.7394 11.6C15.7394 12.6256 15.332 13.6091 14.6069 14.3342C13.8818 15.0593 12.8983 15.4667 11.8728 15.4667Z" fill="white"/>
<path d="M18.1561 6.7667C18.9569 6.7667 19.6061 6.11751 19.6061 5.3167C19.6061 4.51589 18.9569 3.8667 18.1561 3.8667C17.3552 3.8667 16.7061 4.51589 16.7061 5.3167C16.7061 6.11751 17.3552 6.7667 18.1561 6.7667Z" fill="white"/>
</g>
<defs>
<clipPath id="clip0">
<rect width="23.2" height="29" fill="white" transform="translate(0.272705)"/>
</clipPath>
</defs>
</svg>
