<svg width="26" height="26" viewBox="0 0 26 26" fill="none" xmlns="http://www.w3.org/2000/svg">
<path d="M23.3274 7.70432C23.3439 7.93527 23.3439 8.16627 23.3439 8.39722C23.3439 15.4416 17.9823 23.5584 8.18274 23.5584C5.16369 23.5584 2.35914 22.684 0 21.1663C0.428949 21.2157 0.841344 21.2322 1.2868 21.2322C3.77787 21.2322 6.07105 20.3909 7.90227 18.9556C5.55963 18.9061 3.59643 17.3718 2.92002 15.2602C3.25 15.3096 3.57993 15.3426 3.92641 15.3426C4.40482 15.3426 4.88328 15.2766 5.32868 15.1612C2.88707 14.6662 1.05579 12.5216 1.05579 9.93148V9.86551C1.76516 10.2615 2.5901 10.5089 3.4644 10.5419C2.02912 9.585 1.0888 7.95177 1.0888 6.10405C1.0888 5.11422 1.35271 4.20686 1.81467 3.41497C4.43777 6.64847 8.38068 8.76011 12.802 8.99111C12.7195 8.59517 12.67 8.18278 12.67 7.77033C12.67 4.83375 15.0456 2.44165 17.9987 2.44165C19.5329 2.44165 20.9187 3.08505 21.8921 4.12439C23.0963 3.89344 24.2511 3.44798 25.274 2.83759C24.878 4.07493 24.0367 5.11427 22.9314 5.77412C24.0037 5.65869 25.0431 5.36167 25.9999 4.94928C25.2741 6.00507 24.3667 6.94539 23.3274 7.70432Z" fill="#FFFCFC"/>
</svg>
