<svg width="26" height="21" viewBox="0 0 26 21" fill="none" xmlns="http://www.w3.org/2000/svg">
<path d="M21.008 0.669349C15.6885 -0.223116 10.2595 -0.223116 4.94 0.669349C1.898 1.31248 0 3.29435 0 5.87998V15.0675C0 17.6925 1.898 19.6481 4.992 20.3175C7.63816 20.7673 10.3166 20.9956 13 21C15.6916 20.9994 18.3787 20.7755 21.034 20.3306C24.05 19.7531 26 17.7056 26 15.0806V5.89311C26 3.28123 24.05 1.23373 21.008 0.669349ZM17.238 11.0906L10.738 15.0281C10.6363 15.0907 10.519 15.1226 10.4 15.12C10.2871 15.1191 10.176 15.0921 10.075 15.0412C9.97278 14.9786 9.88885 14.8897 9.83175 14.7837C9.77466 14.6776 9.74645 14.5582 9.75 14.4375V6.56248C9.75098 6.44625 9.78135 6.33219 9.83822 6.23112C9.8951 6.13006 9.9766 6.04533 10.075 5.98498C10.177 5.92984 10.2908 5.90098 10.4065 5.90098C10.5222 5.90098 10.636 5.92984 10.738 5.98498L17.238 9.92249C17.3319 9.98298 17.4093 10.0664 17.4629 10.165C17.5164 10.2637 17.5445 10.3744 17.5445 10.4869C17.5445 10.5994 17.5164 10.71 17.4629 10.8087C17.4093 10.9073 17.3319 10.9907 17.238 11.0512V11.0906Z" fill="white"/>
</svg>
